<mxfile host="app.diagrams.net" modified="2023-10-05T10:05:50.241Z" agent="Mozilla/5.0 (Windows NT 10.0; Win64; x64) AppleWebKit/537.36 (KHTML, like Gecko) Chrome/117.0.0.0 Safari/537.36" etag="HFbneO_Hd8Tj2wR8YvXE" version="21.7.5" type="device">
  <diagram name="Page-1" id="6ZYwSj92NNoz_i1kK5TO">
    <mxGraphModel dx="1050" dy="534" grid="1" gridSize="10" guides="1" tooltips="1" connect="1" arrows="1" fold="1" page="1" pageScale="1" pageWidth="850" pageHeight="1100" math="0" shadow="0">
      <root>
        <mxCell id="0" />
        <mxCell id="1" parent="0" />
        <mxCell id="OcdFHX0TIvPaFMc8Q6KJ-2" value="" style="whiteSpace=wrap;html=1;aspect=fixed;fillColor=#CCCCCC;strokeColor=#82b366;" vertex="1" parent="1">
          <mxGeometry width="1000" height="1000" as="geometry" />
        </mxCell>
        <mxCell id="OcdFHX0TIvPaFMc8Q6KJ-8" value="LOGO&lt;br&gt;with link to index" style="ellipse;whiteSpace=wrap;html=1;aspect=fixed;" vertex="1" parent="1">
          <mxGeometry x="30" y="17.5" width="75" height="75" as="geometry" />
        </mxCell>
        <mxCell id="OcdFHX0TIvPaFMc8Q6KJ-11" value="" style="rounded=1;whiteSpace=wrap;html=1;fillColor=#b0e3e6;strokeColor=#0e8088;" vertex="1" parent="1">
          <mxGeometry x="860" y="25" width="120" height="60" as="geometry" />
        </mxCell>
        <mxCell id="OcdFHX0TIvPaFMc8Q6KJ-12" value="" style="rounded=1;whiteSpace=wrap;html=1;fillColor=#b0e3e6;strokeColor=#0e8088;" vertex="1" parent="1">
          <mxGeometry x="730" y="25" width="120" height="60" as="geometry" />
        </mxCell>
        <mxCell id="OcdFHX0TIvPaFMc8Q6KJ-13" value="" style="rounded=1;whiteSpace=wrap;html=1;fillColor=#b0e3e6;strokeColor=#0e8088;" vertex="1" parent="1">
          <mxGeometry x="600" y="25" width="120" height="60" as="geometry" />
        </mxCell>
        <mxCell id="OcdFHX0TIvPaFMc8Q6KJ-15" value="TEXT&lt;br&gt;INFO&amp;nbsp;&lt;br&gt;" style="whiteSpace=wrap;html=1;aspect=fixed;" vertex="1" parent="1">
          <mxGeometry x="70" y="160" width="400" height="400" as="geometry" />
        </mxCell>
      </root>
    </mxGraphModel>
  </diagram>
</mxfile>
